<svg xmlns="http://www.w3.org/2000/svg" style="display: none;">
    <symbol id="icon-cloud-upload" viewBox="0 0 64 64">
        <path d="M34.0564 4.0989C29.2262 3.62826 24.3822 4.84705 20.3499 7.54759C16.4885 10.1337 13.6001 13.9255 12.1296 18.3219C9.09136 18.9441 6.34109 20.5648 4.3227 22.935C2.16928 25.4638 0.990824 28.6791 1.00005 32.0005C1.00697 35.5278 2.33859 38.9238 4.73108 41.5157C7.12367 44.1077 10.4026 45.7063 13.9183 45.9948L13.9591 45.9982H25.0001V43.9982H14.0419C11.0411 43.7419 8.24408 42.3728 6.20068 40.1591C4.14821 37.9356 3.00589 35.0222 3.00005 31.9962C2.99206 29.1518 4.00123 26.3973 5.8454 24.2317C7.68957 22.0661 10.2472 20.6311 13.0566 20.1858L13.6759 20.0877L13.8573 19.4874C15.1272 15.2847 17.815 11.6524 21.4629 9.20934C25.1107 6.76629 29.4928 5.66371 33.8624 6.08947C38.2321 6.51523 42.3189 8.44299 45.4265 11.5443C48.5342 14.6455 50.4703 18.7284 50.905 23.0972L50.9872 23.9235L51.8145 23.9945C54.3128 24.209 56.6406 25.3501 58.3403 27.1936C60.04 29.037 60.9888 31.4496 61.0002 33.957C61.0116 36.4645 60.0848 38.8855 58.4019 40.7444C56.7293 42.5918 54.4302 43.7511 51.9515 43.9982H39V45.9982H52.0475L52.0946 45.9937C55.0879 45.7093 57.8665 44.3157 59.8845 42.0867C61.9025 39.8577 63.0139 36.9546 63.0002 33.9479C62.9865 30.9412 61.8488 28.0484 59.8107 25.8378C57.9585 23.829 55.4844 22.5157 52.8001 22.0998C52.1736 17.5733 50.0842 13.3669 46.8393 10.1286C43.4042 6.70047 38.8866 4.56953 34.0564 4.0989Z" />
        <path d="M32 24.584L44.4142 36.9982L43 38.4124L33 28.4124V59.9982H31V28.4124L21 38.4124L19.5858 36.9982L32 24.584Z" />
    </symbol>

    <symbol id="icon-file" viewBox="0 0 64 64">
        <path d="M36 16V18H47V16H36Z" />
        <path d="M36 26H47V28H36V26Z" />
        <path d="M17 36V38H47V36H17Z" />
        <path d="M17 46H47V48H17V46Z" />
        <path fill-rule="evenodd" clip-rule="evenodd" d="M17 15V29H31V15H17ZM19 27V17H29V27H19Z" />
        <path fill-rule="evenodd" clip-rule="evenodd" d="M11 3C9.34315 3 8 4.34314 8 6V58C8 59.6569 9.34314 61 11 61H53C54.6569 61 56 59.6569 56 58V6C56 4.34315 54.6569 3 53 3H11ZM10 6C10 5.44771 10.4477 5 11 5H53C53.5523 5 54 5.44771 54 6V58C54 58.5523 53.5523 59 53 59H11C10.4477 59 10 58.5523 10 58V6Z" />
    </symbol>
</svg>